<svg xmlns="http://www.w3.org/2000/svg" viewBox="0 0 292.79 36.49"><defs><style>.cls-1{opacity:0.3;}.cls-2{fill:#6f756f;}.cls-3{opacity:0.3;}.cls-4{fill:none;stroke:#6f756f;stroke-miterlimit:10;stroke-width:2px;}</style></defs><title>Asset 9</title><g id="Layer_2" data-name="Layer 2"><g id="Layer_1-2" data-name="Layer 1"><g class="cls-1"><path class="cls-2" d="M85.29,3.24H93a6.32,6.32,0,0,1,6.39,4.62c.64,2,.77,5.76-.43,11.69-1.62,8.29-4.3,11.82-5,12.68a10,10,0,0,1-8.05,3.62H78.77ZM81.16,34H85c3.37,0,6.27-.5,8.48-4.17,1.79-2.89,2.73-7.2,3.37-10.32s1.45-7.84.68-10.64C96.59,5.46,94,5.06,90.75,5.06H87Z"/><path class="cls-2" d="M126.42,3.24l-4.86,24.23c-1.28,6.43-6.39,9-9.8,9-4.22,0-7.37-3.72-6.39-8.52l4.94-24.73h2l-4.64,23.15c-1.24,6.2,1.15,8.28,4.47,8.28,3.5,0,6.44-2.26,7.51-7.56l4.77-23.87Z"/><path class="cls-2" d="M149.82,7.86c-1.53-1.76-3.37-3.44-6-3.44A7.07,7.07,0,0,0,137,10.13c-.51,2.53.17,4.26,3.45,6.66l2.22,1.63c4.26,3.12,6.09,5,5.28,9-1.1,5.61-5.28,9.06-10.52,9.06a8.23,8.23,0,0,1-7.67-4.8l1.79-1.32a6.79,6.79,0,0,0,6.26,4.3,8.35,8.35,0,0,0,7.89-6.7c.59-3.08.51-4.26-4.44-7.83l-2.51-1.81c-2.6-1.86-4.73-4-3.92-8a9.27,9.27,0,0,1,16.53-4.07Z"/><path class="cls-2" d="M161.75,18.19c3-.05,6.44-3.85,8.57-6.34a59.93,59.93,0,0,0,6.09-8.74l1.84,1.18c-1.62,2.22-3.28,4.39-5,6.56-2.51,3.31-5.37,6.48-8.91,8.43l9.81,16.57h-2.77l-9-15.85h-1l-3.15,15.85h-2l6.52-32.61h2Z"/><path class="cls-2" d="M217,5.06H204l-2.64,13.13h9.33L210.32,20H201l-2.77,14h13.3l-.38,1.81h-15.3l6.52-32.61h15Z"/><path class="cls-2" d="M239.94,3.24h2.26L230.73,22,228,35.85h-2L228.73,22l-4-18.8H227l3.2,16.31Z"/><path class="cls-2" d="M268.15,5.06h-13l-2.64,13.13h9.33L261.46,20h-9.33l-2.77,14h13.29l-.38,1.81H247l6.52-32.61h15Z"/><path class="cls-2" d="M291.25,7.86c-1.53-1.76-3.37-3.44-6-3.44a7.07,7.07,0,0,0-6.82,5.71c-.51,2.53.17,4.26,3.46,6.66l2.21,1.63c4.26,3.12,6.1,5,5.29,9-1.11,5.61-5.29,9.06-10.53,9.06a8.24,8.24,0,0,1-7.67-4.8L273,30.37a6.8,6.8,0,0,0,6.26,4.3,8.35,8.35,0,0,0,7.89-6.7c.59-3.08.51-4.26-4.44-7.83l-2.51-1.81c-2.6-1.86-4.73-4-3.92-8a9.27,9.27,0,0,1,16.54-4.07Z"/></g><path class="cls-2" d="M83.19.63h7.67a6.32,6.32,0,0,1,6.39,4.62c.64,2,.77,5.76-.43,11.69-1.62,8.29-4.3,11.82-5,12.68a10,10,0,0,1-8.05,3.62H76.67Zm-4.14,30.8h3.8c3.36,0,6.26-.5,8.48-4.17,1.79-2.89,2.72-7.2,3.36-10.32s1.45-7.84.68-10.64c-.89-3.45-3.49-3.85-6.73-3.85H84.85Z"/><path class="cls-2" d="M124.31.63l-4.86,24.23c-1.27,6.43-6.39,9-9.8,9-4.22,0-7.37-3.72-6.39-8.52L108.2.63h2l-4.65,23.15c-1.23,6.2,1.15,8.28,4.48,8.28,3.49,0,6.43-2.26,7.5-7.56L122.31.63Z"/><path class="cls-2" d="M147.71,5.25c-1.53-1.76-3.36-3.44-6-3.44a7.07,7.07,0,0,0-6.82,5.71c-.51,2.53.17,4.26,3.46,6.66l2.21,1.63c4.26,3.12,6.1,5,5.29,9-1.11,5.61-5.29,9.06-10.53,9.06a8.24,8.24,0,0,1-7.67-4.8l1.79-1.32a6.8,6.8,0,0,0,6.26,4.3,8.35,8.35,0,0,0,7.89-6.7c.6-3.08.51-4.26-4.43-7.83l-2.52-1.81c-2.6-1.86-4.73-4-3.92-8a9.27,9.27,0,0,1,16.54-4.07Z"/><path class="cls-2" d="M159.65,15.58c3-.05,6.43-3.85,8.56-6.34A60.78,60.78,0,0,0,174.31.5l1.83,1.18c-1.62,2.22-3.28,4.39-5,6.56-2.51,3.31-5.37,6.48-8.9,8.43l9.8,16.57h-2.77l-9-15.85h-1l-3.15,15.85h-2L160.63.63h2Z"/><path class="cls-2" d="M214.9,2.45h-13l-2.64,13.13h9.33l-.38,1.81h-9.33l-2.78,14h13.3L209,33.24h-15.3L200.24.63h15Z"/><path class="cls-2" d="M237.83.63h2.26l-11.47,18.8-2.77,13.81h-2l2.77-13.81-4-18.8h2.26l3.19,16.31Z"/><path class="cls-2" d="M266,2.45H253L250.4,15.58h9.34l-.39,1.81H250l-2.77,14h13.3l-.39,1.81h-15.3L251.38.63h15Z"/><path class="cls-2" d="M289.14,5.25c-1.53-1.76-3.36-3.44-6-3.44a7.06,7.06,0,0,0-6.81,5.71c-.52,2.53.17,4.26,3.45,6.66L282,15.81c4.27,3.12,6.1,5,5.29,9-1.11,5.61-5.29,9.06-10.53,9.06a8.24,8.24,0,0,1-7.67-4.8l1.79-1.32a6.81,6.81,0,0,0,6.27,4.3,8.35,8.35,0,0,0,7.88-6.7c.6-3.08.51-4.26-4.43-7.83l-2.52-1.81c-2.6-1.86-4.73-4-3.92-8a9.27,9.27,0,0,1,16.54-4.07Z"/><g class="cls-3"><path class="cls-4" d="M4,16.7S39.3-7.95,61.57,22.36c-6.14,5.88-16.8,9.94-23.94,10.17C16.44,33.23,7.65,22.65,4,16.7Z"/><circle class="cls-4" cx="33.76" cy="19.89" r="12.41"/></g><path class="cls-4" d="M1.35,13.37S36.66-11.27,58.93,19C52.79,24.91,42.13,29,35,29.2,13.8,29.9,5,19.32,1.35,13.37Z"/><circle class="cls-4" cx="30.88" cy="16.8" r="12.17"/></g></g></svg>