<svg xmlns="http://www.w3.org/2000/svg" viewBox="0 0 93.97 170.12"><defs><style>.cls-1,.cls-2,.cls-3{fill:none;stroke:#c7c9c7;stroke-linecap:round;}.cls-1,.cls-2{stroke-miterlimit:10;}.cls-1{stroke-width:4px;}.cls-2,.cls-3{stroke-width:2px;}.cls-3{stroke-linejoin:round;}</style></defs><title>figureeight</title><g id="Layer_2" data-name="Layer 2"><g id="Layer_1-2" data-name="Layer 1"><path class="cls-1" d="M47.86,2S79.31,2,79.31,40.61c0,25.5-30.95,44.45-30.95,44.45h-1s-30.95-19-30.95-44.45C16.42,2,47.86,2,47.86,2"/><path class="cls-1" d="M47.86,168.12s31.45,0,31.45-38.61c0-25.5-30.95-44.45-30.95-44.45h-1s-30.95,19-30.95,44.45c0,38.61,31.44,38.61,31.44,38.61"/><line class="cls-2" x1="8.8" y1="90.58" x2="19.66" y2="87.49"/><polyline class="cls-3" points="19.52 98.77 19.66 87.48 1 111.89"/><line class="cls-2" x1="82.11" y1="108.79" x2="92.97" y2="111.89"/><polyline class="cls-3" points="92.83 100.6 92.97 111.89 74.31 87.48"/></g></g></svg>